<svg width="22" height="21" viewBox="0 0 22 21" fill="none" xmlns="http://www.w3.org/2000/svg">
<g clip-path="url(#clip0_227_2173)">
<path fill-rule="evenodd" clip-rule="evenodd" d="M21.4375 2.84106C20.6356 3.29606 19.0265 3.91614 18.0806 4.095C18.0529 4.10187 18.0303 4.11071 18.0036 4.1176C17.1676 3.32947 16.0223 2.84106 14.7547 2.84106C12.1998 2.84106 10.1281 4.82122 10.1281 7.26324C10.1281 7.39197 10.1168 7.6288 10.1281 7.75459C6.68082 7.75459 4.05705 6.02897 2.17558 3.82377C1.97098 4.31512 1.88153 5.09146 1.88153 5.82063C1.88153 7.1974 3.00733 8.5496 4.76028 9.38785C4.43745 9.46744 4.08172 9.52445 3.7116 9.52445C3.11426 9.52445 2.48196 9.37409 1.90313 8.91812C1.90313 8.93482 1.90313 8.95055 1.90313 8.96823C1.90313 10.8924 4.03957 12.2023 5.93954 12.5669C5.554 12.7841 4.77673 12.8057 4.39736 12.8057C4.13004 12.8057 3.18417 12.6887 2.93125 12.6435C3.45971 14.2208 5.36585 15.1072 7.18255 15.1386C5.76168 16.2039 4.77571 16.5989 1.86611 16.5989H0.875C2.71329 17.7252 5.05433 18.5653 7.40051 18.5653C15.0394 18.5653 19.3813 13.0003 19.3813 7.75459C19.3813 7.67008 19.3792 7.49319 19.376 7.31532C19.376 7.29764 19.3813 7.28093 19.3813 7.26324C19.3813 7.23671 19.373 7.21115 19.373 7.18463C19.37 7.05097 19.3669 6.92617 19.3637 6.86131C20.1759 6.30116 20.8803 5.60246 21.4375 4.80648C20.692 5.12291 19.8922 5.33517 19.0522 5.43148C19.9097 4.94012 21.1281 3.76874 21.4375 2.84106Z" fill="white"/>
</g>
<defs>
<clipPath id="clip0_227_2173">
<rect width="20.5625" height="20.5625" fill="white" transform="translate(0.875 0.421875)"/>
</clipPath>
</defs>
</svg>
