<svg width="22" height="21" viewBox="0 0 22 21" fill="none" xmlns="http://www.w3.org/2000/svg">
<g clip-path="url(#clip0_227_2280)">
<path fill-rule="evenodd" clip-rule="evenodd" d="M21.4375 2.84082C20.6356 3.29581 19.0265 3.9159 18.0806 4.09476C18.0529 4.10163 18.0303 4.11047 18.0036 4.11735C17.1676 3.32922 16.0223 2.84082 14.7547 2.84082C12.1998 2.84082 10.1281 4.82098 10.1281 7.26299C10.1281 7.39173 10.1168 7.62856 10.1281 7.75435C6.68082 7.75435 4.05705 6.02872 2.17558 3.82353C1.97098 4.31487 1.88153 5.09122 1.88153 5.82039C1.88153 7.19716 3.00733 8.54936 4.76028 9.38761C4.43745 9.4672 4.08172 9.5242 3.7116 9.5242C3.11426 9.5242 2.48196 9.37384 1.90313 8.91787C1.90313 8.93458 1.90313 8.9503 1.90313 8.96799C1.90313 10.8921 4.03957 12.2021 5.93954 12.5667C5.554 12.7838 4.77673 12.8054 4.39736 12.8054C4.13004 12.8054 3.18417 12.6885 2.93125 12.6433C3.45971 14.2205 5.36585 15.107 7.18255 15.1384C5.76168 16.2037 4.77571 16.5987 1.86611 16.5987H0.875C2.71329 17.7249 5.05433 18.5651 7.40051 18.5651C15.0394 18.5651 19.3813 13 19.3813 7.75435C19.3813 7.66984 19.3792 7.49294 19.376 7.31508C19.376 7.29739 19.3813 7.28069 19.3813 7.26299C19.3813 7.23647 19.373 7.21091 19.373 7.18438C19.37 7.05073 19.3669 6.92592 19.3637 6.86107C20.1759 6.30092 20.8803 5.60222 21.4375 4.80623C20.692 5.12267 19.8922 5.33493 19.0522 5.43124C19.9097 4.93988 21.1281 3.76849 21.4375 2.84082Z" fill="white"/>
</g>
<defs>
<clipPath id="clip0_227_2280">
<rect width="20.5625" height="20.5625" fill="white" transform="translate(0.875 0.421875)"/>
</clipPath>
</defs>
</svg>
