<svg width="21" height="21" viewBox="0 0 21 21" fill="none" xmlns="http://www.w3.org/2000/svg">
<g clip-path="url(#clip0_227_1777)">
<path fill-rule="evenodd" clip-rule="evenodd" d="M3.53795 0.21875C2.20458 0.21875 1.12292 1.32317 1.12292 2.68684C1.12292 4.0505 2.20371 5.18048 3.53617 5.18048C4.86862 5.18048 5.95119 4.0505 5.95119 2.68684C5.95119 1.3241 4.87132 0.21875 3.53795 0.21875ZM15.3204 6.76137C13.2924 6.76137 12.1321 7.84598 11.5755 8.92458H11.5166V7.05161H7.52015V20.7812H11.6844V13.9849C11.6844 12.1941 11.8166 10.4635 13.9834 10.4635C16.1192 10.4635 16.1503 12.5054 16.1503 14.098V20.7812H20.3146V13.2401C20.3146 9.55005 19.5388 6.76137 15.3204 6.76137ZM1.45492 7.05161V20.7812H5.62275V7.05161H1.45492Z" fill="white"/>
</g>
<defs>
<clipPath id="clip0_227_1777">
<rect width="20.5625" height="20.5625" fill="white" transform="translate(0.4375 0.21875)"/>
</clipPath>
</defs>
</svg>
