<svg width="21" height="21" viewBox="0 0 21 21" fill="none" xmlns="http://www.w3.org/2000/svg">
<g clip-path="url(#clip0_227_1777)">
<path fill-rule="evenodd" clip-rule="evenodd" d="M3.53795 0.421875C2.20458 0.421875 1.12292 1.52629 1.12292 2.88996C1.12292 4.25363 2.20371 5.38361 3.53617 5.38361C4.86862 5.38361 5.95119 4.25363 5.95119 2.88996C5.95119 1.52723 4.87132 0.421875 3.53795 0.421875ZM15.3204 6.96449C13.2924 6.96449 12.1321 8.04911 11.5755 9.12771H11.5166V7.25474H7.52015V20.9844H11.6844V14.1881C11.6844 12.3972 11.8166 10.6666 13.9834 10.6666C16.1192 10.6666 16.1503 12.7085 16.1503 14.3012V20.9844H20.3146V13.4432C20.3146 9.75318 19.5388 6.96449 15.3204 6.96449ZM1.45492 7.25474V20.9844H5.62275V7.25474H1.45492Z" fill="white"/>
</g>
<defs>
<clipPath id="clip0_227_1777">
<rect width="20.5625" height="20.5625" fill="white" transform="translate(0.4375 0.421875)"/>
</clipPath>
</defs>
</svg>
