<svg width="22" height="21" viewBox="0 0 22 21" fill="none" xmlns="http://www.w3.org/2000/svg">
<g clip-path="url(#clip0_227_1774)">
<path fill-rule="evenodd" clip-rule="evenodd" d="M21.4375 2.63788C20.6356 3.09287 19.0265 3.71296 18.0806 3.89182C18.0529 3.89869 18.0303 3.90753 18.0036 3.91441C17.1676 3.12628 16.0223 2.63788 14.7547 2.63788C12.1998 2.63788 10.1281 4.61804 10.1281 7.06005C10.1281 7.18878 10.1168 7.42561 10.1281 7.55141C6.68082 7.55141 4.05705 5.82578 2.17558 3.62058C1.97098 4.11193 1.88153 4.88827 1.88153 5.61745C1.88153 6.99421 3.00733 8.34642 4.76028 9.18466C4.43745 9.26425 4.08172 9.32126 3.7116 9.32126C3.11426 9.32126 2.48196 9.1709 1.90313 8.71493C1.90313 8.73164 1.90313 8.74736 1.90313 8.76504C1.90313 10.6892 4.03957 11.9991 5.93954 12.3637C5.554 12.5809 4.77673 12.6025 4.39736 12.6025C4.13004 12.6025 3.18417 12.4856 2.93125 12.4404C3.45971 14.0176 5.36585 14.904 7.18255 14.9355C5.76168 16.0007 4.77571 16.3958 1.86611 16.3958H0.875C2.71329 17.522 5.05433 18.3621 7.40051 18.3621C15.0394 18.3621 19.3813 12.7971 19.3813 7.55141C19.3813 7.4669 19.3792 7.29 19.376 7.11213C19.376 7.09445 19.3813 7.07775 19.3813 7.06005C19.3813 7.03352 19.373 7.00797 19.373 6.98144C19.37 6.84778 19.3669 6.72298 19.3637 6.65813C20.1759 6.09798 20.8803 5.39928 21.4375 4.60329C20.692 4.91972 19.8922 5.13199 19.0522 5.22829C19.9097 4.73693 21.1281 3.56555 21.4375 2.63788Z" fill="white"/>
</g>
<defs>
<clipPath id="clip0_227_1774">
<rect width="20.5625" height="20.5625" fill="white" transform="translate(0.875 0.21875)"/>
</clipPath>
</defs>
</svg>
