<svg width="21" height="21" viewBox="0 0 21 21" fill="none" xmlns="http://www.w3.org/2000/svg">
<g clip-path="url(#clip0_227_2170)">
<path fill-rule="evenodd" clip-rule="evenodd" d="M6.64818 1.02661C3.64297 1.02661 1.19135 3.47823 1.19135 6.48345V14.3694C1.19135 17.3745 3.64297 19.8262 6.64818 19.8262H14.534C17.5393 19.8262 19.9908 17.3745 19.9908 14.3694V6.48345C19.9908 3.47823 17.5393 1.02661 14.534 1.02661H6.64818ZM6.64829 2.47237H14.5342C16.757 2.47237 18.5449 4.25743 18.5449 6.4831V14.369C18.5449 16.5918 16.7599 18.3797 14.5342 18.3797H6.64829C4.42545 18.3797 2.63758 16.5946 2.63758 14.369V6.4831C2.63758 4.26026 4.42262 2.47237 6.64829 2.47237ZM16.0141 3.91939C15.4152 3.91939 14.9294 4.4052 14.9294 5.00398C14.9294 5.60277 15.4152 6.08858 16.0141 6.08858C16.6128 6.08858 17.0985 5.60277 17.0985 5.00398C17.0985 4.4052 16.6128 3.91939 16.0141 3.91939ZM10.5908 5.36519C7.80302 5.36519 5.52934 7.63888 5.52934 10.4266C5.52934 13.2144 7.80302 15.488 10.5908 15.488C13.3785 15.488 15.6522 13.2144 15.6522 10.4266C15.6522 7.63888 13.3785 5.36519 10.5908 5.36519ZM10.591 6.811C12.5964 6.811 14.2064 8.42094 14.2064 10.4263C14.2064 12.4317 12.5964 14.0416 10.591 14.0416C8.58567 14.0416 6.97573 12.4317 6.97573 10.4263C6.97573 8.42094 8.58567 6.811 10.591 6.811Z" fill="white"/>
</g>
<defs>
<clipPath id="clip0_227_2170">
<rect width="20.5625" height="20.5625" fill="white" transform="translate(0.3125 0.421875)"/>
</clipPath>
</defs>
</svg>
