<svg width="21" height="21" viewBox="0 0 21 21" fill="none" xmlns="http://www.w3.org/2000/svg">
<g clip-path="url(#clip0_227_2713)">
<path fill-rule="evenodd" clip-rule="evenodd" d="M6.64818 1.02637C3.64297 1.02637 1.19135 3.47799 1.19135 6.48321V14.3691C1.19135 17.3743 3.64297 19.8259 6.64818 19.8259H14.534C17.5393 19.8259 19.9908 17.3743 19.9908 14.3691V6.48321C19.9908 3.47799 17.5393 1.02637 14.534 1.02637H6.64818ZM6.64829 2.47213H14.5342C16.757 2.47213 18.5449 4.25718 18.5449 6.48286V14.3688C18.5449 16.5916 16.7599 18.3794 14.5342 18.3794H6.64829C4.42545 18.3794 2.63758 16.5944 2.63758 14.3688V6.48286C2.63758 4.26001 4.42262 2.47213 6.64829 2.47213ZM16.0141 3.91915C15.4152 3.91915 14.9294 4.40496 14.9294 5.00374C14.9294 5.60253 15.4152 6.08833 16.0141 6.08833C16.6128 6.08833 17.0985 5.60253 17.0985 5.00374C17.0985 4.40496 16.6128 3.91915 16.0141 3.91915ZM10.5908 5.36495C7.80302 5.36495 5.52934 7.63864 5.52934 10.4264C5.52934 13.2141 7.80302 15.4877 10.5908 15.4877C13.3785 15.4877 15.6522 13.2141 15.6522 10.4264C15.6522 7.63864 13.3785 5.36495 10.5908 5.36495ZM10.591 6.81076C12.5964 6.81076 14.2064 8.42069 14.2064 10.4261C14.2064 12.4314 12.5964 14.0413 10.591 14.0413C8.58567 14.0413 6.97573 12.4314 6.97573 10.4261C6.97573 8.42069 8.58567 6.81076 10.591 6.81076Z" fill="white"/>
</g>
<defs>
<clipPath id="clip0_227_2713">
<rect width="20.5625" height="20.5625" fill="white" transform="translate(0.3125 0.421875)"/>
</clipPath>
</defs>
</svg>
