<svg width="21" height="21" viewBox="0 0 21 21" fill="none" xmlns="http://www.w3.org/2000/svg">
<g clip-path="url(#clip0_227_2277)">
<path fill-rule="evenodd" clip-rule="evenodd" d="M6.64818 1.02686C3.64297 1.02686 1.19135 3.47847 1.19135 6.4837V14.3696C1.19135 17.3748 3.64297 19.8264 6.64818 19.8264H14.534C17.5393 19.8264 19.9908 17.3748 19.9908 14.3696V6.4837C19.9908 3.47847 17.5393 1.02686 14.534 1.02686H6.64818ZM6.64829 2.47262H14.5342C16.757 2.47262 18.5449 4.25767 18.5449 6.48334V14.3693C18.5449 16.5921 16.7599 18.3799 14.5342 18.3799H6.64829C4.42545 18.3799 2.63758 16.5948 2.63758 14.3693V6.48334C2.63758 4.2605 4.42262 2.47262 6.64829 2.47262ZM16.0141 3.91964C15.4152 3.91964 14.9294 4.40544 14.9294 5.00422C14.9294 5.60302 15.4152 6.08882 16.0141 6.08882C16.6128 6.08882 17.0985 5.60302 17.0985 5.00422C17.0985 4.40544 16.6128 3.91964 16.0141 3.91964ZM10.5908 5.36543C7.80302 5.36543 5.52934 7.63913 5.52934 10.4269C5.52934 13.2146 7.80302 15.4882 10.5908 15.4882C13.3785 15.4882 15.6522 13.2146 15.6522 10.4269C15.6522 7.63913 13.3785 5.36543 10.5908 5.36543ZM10.591 6.81124C12.5964 6.81124 14.2064 8.42118 14.2064 10.4265C14.2064 12.4319 12.5964 14.0418 10.591 14.0418C8.58567 14.0418 6.97573 12.4319 6.97573 10.4265C6.97573 8.42118 8.58567 6.81124 10.591 6.81124Z" fill="white"/>
</g>
<defs>
<clipPath id="clip0_227_2277">
<rect width="20.5625" height="20.5625" fill="white" transform="translate(0.3125 0.421875)"/>
</clipPath>
</defs>
</svg>
