<svg width="21" height="21" viewBox="0 0 21 21" fill="none" xmlns="http://www.w3.org/2000/svg">
<g clip-path="url(#clip0_227_1771)">
<path fill-rule="evenodd" clip-rule="evenodd" d="M6.64818 0.823547C3.64297 0.823547 1.19135 3.27517 1.19135 6.28039V14.1663C1.19135 17.1715 3.64297 19.6231 6.64818 19.6231H14.534C17.5393 19.6231 19.9908 17.1715 19.9908 14.1663V6.28039C19.9908 3.27517 17.5393 0.823547 14.534 0.823547H6.64818ZM6.64829 2.26931H14.5342C16.757 2.26931 18.5449 4.05436 18.5449 6.28004V14.1659C18.5449 16.3888 16.7599 18.1766 14.5342 18.1766H6.64829C4.42545 18.1766 2.63758 16.3915 2.63758 14.1659V6.28004C2.63758 4.05719 4.42262 2.26931 6.64829 2.26931ZM16.0141 3.71633C15.4152 3.71633 14.9294 4.20214 14.9294 4.80092C14.9294 5.39971 15.4152 5.88551 16.0141 5.88551C16.6128 5.88551 17.0985 5.39971 17.0985 4.80092C17.0985 4.20214 16.6128 3.71633 16.0141 3.71633ZM10.5908 5.16213C7.80302 5.16213 5.52934 7.43582 5.52934 10.2235C5.52934 13.0113 7.80302 15.2849 10.5908 15.2849C13.3785 15.2849 15.6522 13.0113 15.6522 10.2235C15.6522 7.43582 13.3785 5.16213 10.5908 5.16213ZM10.591 6.60794C12.5964 6.60794 14.2064 8.21787 14.2064 10.2232C14.2064 12.2286 12.5964 13.8385 10.591 13.8385C8.58567 13.8385 6.97573 12.2286 6.97573 10.2232C6.97573 8.21787 8.58567 6.60794 10.591 6.60794Z" fill="white"/>
</g>
<defs>
<clipPath id="clip0_227_1771">
<rect width="20.5625" height="20.5625" fill="white" transform="translate(0.3125 0.21875)"/>
</clipPath>
</defs>
</svg>
